<svg xmlns="http://www.w3.org/2000/svg" viewBox="0 0 746.79 457.95"><defs><style>.cls-1{fill:#fff;}</style></defs><title>Asset 2</title><g id="Layer_2" data-name="Layer 2"><g id="Layer_1-2" data-name="Layer 1"><path class="cls-1" d="M470.52,158.89c12.23-10.77,24.23-21.34,35.86-31.61l-4.74-7.49.09-12.56L496,95.29,496.12,83q-27,23.77-53.56,47.21a112.77,112.77,0,0,0-39.86-19.47c-23.15-6-47.53-4.13-70.5,5.29a122.52,122.52,0,0,0-56.06,46.44c-14.45,22.41-20.34,47.92-17,73.79a20,20,0,0,0,39.66-5.1,69.52,69.52,0,0,1,11-47,82.22,82.22,0,0,1,37.62-31.12c14.94-6.13,30.63-7.36,45.37-3.56a70.5,70.5,0,0,1,18.91,8c-53.45,47-103.83,91.25-146.4,128.44a154.24,154.24,0,0,1-33.11-61.13c-7.13-26.72-5.74-52.9,4.15-77.83,11.69-29.47,35-56.21,69.29-79.48C335.71,47,370.14,38.35,413.93,40.22c24.13,1,49.36,5.26,74.74,10.71l1.46-12-6.88-11.43,1.57-11.47-6.08-7.95c-21.1-4-42.22-7-63.1-7.85-52.09-2.23-95.44,8.93-132.53,34.1-41,27.85-69.3,60.76-84,97.81-12.94,32.62-14.88,68.2-5.62,102.9,7.44,27.84,22,54.63,41.61,77.09-42.41,36.93-73.84,64-87.8,75.4-26.58,21.75-60.88,12.6-83.09-6.12C36.47,358.07,36.71,332,45.35,316.75c7.5-13.24,16.78-19.85,26.11-18.61,6.51.86,12.28,5.52,13.73,11.1C86.94,316,81,322.07,75.78,326a20,20,0,0,0-4.7,27.19q.26.39.54.78a20,20,0,0,0,28,4.15c10.53-7.81,18-17,22.18-27.42a50,50,0,0,0,2.13-31.45c-5.53-21.36-24.5-37.73-47.2-40.72a58,58,0,0,0-36.21,7.19c-11.83,6.64-21.9,17.19-29.93,31.34C-.58,316.69-3,338.76,3.68,360.87a100,100,0,0,0,12.88,26.84A118.12,118.12,0,0,0,38.45,412c18.39,15.5,40.9,25.31,63.36,27.63,26.15,2.69,50.64-4.61,70.82-21.13,15.28-12.5,49.05-41.61,91.92-78.95,22.7,17,47.38,27.12,71.05,28.89a155.51,155.51,0,0,0,85.8-18.84c25.76-14,47.14-34.94,60.2-59C504.8,247.91,500.73,200,470.52,158.89ZM402.32,314.5a115.53,115.53,0,0,1-63.76,14.09c-13.61-1-28.56-6.69-43-16.09,44.62-39,95.63-83.8,144.77-127,9.58,13.9,14.95,28.39,15.95,43.07s-2.31,29.16-9.85,43C437.05,288.9,421.37,304.15,402.32,314.5Z"/><path class="cls-1" d="M576.35,135.18,548.89,111.3l-10.24-.9-9.07,8.17-14,.51-9.21,8.22c23.42,20.39,45.4,39.5,64.79,56.35-4.76,48.19-7.16,96.6,4.22,140.19C591.59,385.9,633.33,429.32,703,456.58a20,20,0,0,0,23-6.21c14.58-18.41,26.87-55.4,17.6-104-6.88-36.11-28.56-90.83-92.73-146.52L613.1,167.11q.57-5.34,1.17-10.71c2.61-23.82,5.25-48.07,6.59-72.18l-9.22,6.84L598.85,92.5,590.54,99l-10.81.69C578.79,111.5,577.61,123.36,576.35,135.18ZM704.3,353.9c4.93,25.87,1.86,45.76-2.82,58.56-47.79-22.35-75.74-54-87.4-98.72-7.74-29.65-8-62.64-5.58-97.67l16.13,14C655.27,256.68,694,299.75,704.3,353.9Z"/></g></g></svg>