<svg xmlns="http://www.w3.org/2000/svg" viewBox="0 0 44.63 65.53"><defs><style>.cls-1{fill:#231f20;}</style></defs><title>Asset 9</title><g id="Layer_2" data-name="Layer 2"><g id="Start"><path class="cls-1" d="M8.76,3.34A23.15,23.15,0,0,1,21.52,0q9.94,0,16.53,4.75t6.57,14.09a15.92,15.92,0,0,1-2.85,9.63,32.78,32.78,0,0,1-6.41,6.08L32.25,37a9.4,9.4,0,0,0-3.38,4.62,19.54,19.54,0,0,0-.57,5.19H16.37c.18-5,.64-8.38,1.41-10.27S20.5,32.43,23.66,30l3.2-2.51a11.12,11.12,0,0,0,2.54-2.6,8.85,8.85,0,0,0,1.76-5.32,10.33,10.33,0,0,0-1.95-6.1q-2-2.74-7.14-2.75c-3.4,0-5.8,1.13-7.22,3.39a13.06,13.06,0,0,0-2.13,7H0Q.52,8.58,8.76,3.34Zm7.3,49.47H29.22V65.53H16.06Z"/></g></g></svg>