<svg xmlns="http://www.w3.org/2000/svg" viewBox="0 0 21.94 26.24"><defs><style>.cls-1{fill:#fff;}</style></defs><title>Asset 15</title><g id="Layer_2" data-name="Layer 2"><g id="Start"><path class="cls-1" d="M18.32.71a.93.93,0,0,0-1-.71H4.58a.93.93,0,0,0-1,.71L0,25.33a.87.87,0,0,0,1,.91H21a.87.87,0,0,0,.95-.91ZM5.45,2h11L18.8,17.75H11.57l2.54-9.44A1.42,1.42,0,0,0,15.32,6.9a1.4,1.4,0,0,0-.54-1.1L15.27,4a.58.58,0,0,0-.41-.71.56.56,0,0,0-.7.41l-.49,1.81A1.42,1.42,0,0,0,13,8L10.41,17.6a.76.76,0,0,0,0,.15H3.14Z"/></g></g></svg>