<?xml version="1.0" encoding="utf-8"?>
<!-- Generator: Adobe Illustrator 23.0.1, SVG Export Plug-In . SVG Version: 6.00 Build 0)  -->
<svg version="1.1" id="Layer_1" xmlns="http://www.w3.org/2000/svg" xmlns:xlink="http://www.w3.org/1999/xlink" x="0px" y="0px"
	 viewBox="0 0 460.2 135.4" style="enable-background:new 0 0 460.2 135.4;" xml:space="preserve">
<style type="text/css">
	.st0{fill:#568455;}
	.st1{fill:#FF5948;}
</style>
<title>Asset 12</title>
<g>
	<g id="Start">
		<path class="st0" d="M164.2,78.7c12.4-1.5,25-2.8,37.3-3.9c-1.9,2.9-3.3,7.8-3.7,15.6c-1.5,29.5,46.3,48.1,65.2,44.6
			c-20.8-6.5-11.7-53.4-47.7-61.4c50.3-4.2,96.2-5.4,120.1-4.3c2.8,0.1,5.1-2,5.2-4.8c0.1-2.8-2-5.1-4.8-5.2
			c-30.7-1.5-96.8,1-162.6,8.3c21-24.9,3.8-54,13.1-65.9c-15.9,6.1-36.5,15.7-35.8,36.8c0.5,15.3,10.6,25.4,16.1,29.8
			c-1.2,0.2-2.5,0.3-3.8,0.4C103.3,75.9,26.8,89.3,1.6,113c-2,1.9-2.1,5.1-0.2,7.1c1.9,2,5.1,2.1,7.1,0.2
			C26.5,103.3,81.9,88.5,164.2,78.7z"/>
		<path class="st1" d="M439.5,114.9c1.3-1,1.5-2.9,0.4-4.2c-0.1-0.1-0.2-0.3-0.4-0.4c-5.4-4.6-10.8-9.8-16.3-15
			c-22.2-21.4-47.4-45.5-86.4-42.8c-6.6,34.9,16.4,68.4,51.3,75C406.2,130.8,424.9,126.3,439.5,114.9L439.5,114.9z"/>
		<path class="st1" d="M394.4,60.5c13.1,8.6,24.3,19.3,34.3,29l0.6,0.6c6.3-0.6,12.1-5.1,15.9-9c9.2-9.2,14.9-21.5,14.9-25.2
			c0-5.5-11.8-27.6-37.9-30.6C412.1,31.6,401.1,42.3,394.4,60.5z"/>
		<path class="st1" d="M387.5,56.3c9-23.2,25.8-37,42-43.5c1.5-0.6,2.2-2.4,1.6-3.9c-0.3-0.7-0.8-1.2-1.4-1.5
			c-31.5-16.4-70.3-4.2-86.7,27.3c-1.6,3.1-3,6.4-4.1,9.7C357.8,43.5,373.7,48.5,387.5,56.3z"/>
	</g>
</g>
</svg>
